<mxfile host="app.diagrams.net" modified="2024-11-22T05:36:12.248Z" agent="Mozilla/5.0 (Windows NT 10.0; Win64; x64) AppleWebKit/537.36 (KHTML, like Gecko) Chrome/131.0.0.0 Safari/537.36" etag="0GZ7SEqgpB3qeCiGIg58" version="24.6.4" type="device">
  <diagram name="หน้า-1" id="43ClmZvgIuhErUQjQovx">
    <mxGraphModel dx="1050" dy="522" grid="1" gridSize="10" guides="1" tooltips="1" connect="1" arrows="1" fold="1" page="1" pageScale="1" pageWidth="827" pageHeight="1169" math="0" shadow="0">
      <root>
        <mxCell id="0" />
        <mxCell id="1" parent="0" />
        <mxCell id="pAvVOW_PQTt-eWisGmQ0-4" value="" style="edgeStyle=orthogonalEdgeStyle;rounded=0;orthogonalLoop=1;jettySize=auto;html=1;" edge="1" parent="1" source="pAvVOW_PQTt-eWisGmQ0-1" target="pAvVOW_PQTt-eWisGmQ0-3">
          <mxGeometry relative="1" as="geometry" />
        </mxCell>
        <mxCell id="pAvVOW_PQTt-eWisGmQ0-1" value="Start" style="strokeWidth=2;html=1;shape=mxgraph.flowchart.start_1;whiteSpace=wrap;" vertex="1" parent="1">
          <mxGeometry x="314" y="20" width="100" height="60" as="geometry" />
        </mxCell>
        <mxCell id="pAvVOW_PQTt-eWisGmQ0-6" value="" style="edgeStyle=orthogonalEdgeStyle;rounded=0;orthogonalLoop=1;jettySize=auto;html=1;" edge="1" parent="1" source="pAvVOW_PQTt-eWisGmQ0-3" target="pAvVOW_PQTt-eWisGmQ0-5">
          <mxGeometry relative="1" as="geometry" />
        </mxCell>
        <mxCell id="pAvVOW_PQTt-eWisGmQ0-3" value="เรียกใช้คำสั่งพื้นฐานภาษา ซี" style="whiteSpace=wrap;html=1;strokeWidth=2;" vertex="1" parent="1">
          <mxGeometry x="304" y="120" width="120" height="60" as="geometry" />
        </mxCell>
        <mxCell id="pAvVOW_PQTt-eWisGmQ0-8" value="" style="edgeStyle=orthogonalEdgeStyle;rounded=0;orthogonalLoop=1;jettySize=auto;html=1;" edge="1" parent="1" source="pAvVOW_PQTt-eWisGmQ0-5" target="pAvVOW_PQTt-eWisGmQ0-7">
          <mxGeometry relative="1" as="geometry" />
        </mxCell>
        <mxCell id="pAvVOW_PQTt-eWisGmQ0-5" value="ประกาศ main fuction" style="whiteSpace=wrap;html=1;strokeWidth=2;" vertex="1" parent="1">
          <mxGeometry x="304" y="220" width="120" height="60" as="geometry" />
        </mxCell>
        <mxCell id="pAvVOW_PQTt-eWisGmQ0-10" value="" style="edgeStyle=orthogonalEdgeStyle;rounded=0;orthogonalLoop=1;jettySize=auto;html=1;" edge="1" parent="1" source="pAvVOW_PQTt-eWisGmQ0-7" target="pAvVOW_PQTt-eWisGmQ0-9">
          <mxGeometry relative="1" as="geometry" />
        </mxCell>
        <mxCell id="pAvVOW_PQTt-eWisGmQ0-7" value="พิมพ์คำสั่งแสดงผล" style="whiteSpace=wrap;html=1;strokeWidth=2;" vertex="1" parent="1">
          <mxGeometry x="304" y="330" width="120" height="60" as="geometry" />
        </mxCell>
        <mxCell id="pAvVOW_PQTt-eWisGmQ0-12" value="" style="edgeStyle=orthogonalEdgeStyle;rounded=0;orthogonalLoop=1;jettySize=auto;html=1;" edge="1" parent="1" source="pAvVOW_PQTt-eWisGmQ0-9" target="pAvVOW_PQTt-eWisGmQ0-11">
          <mxGeometry relative="1" as="geometry" />
        </mxCell>
        <mxCell id="pAvVOW_PQTt-eWisGmQ0-9" value="ส่งค่าผลลัพธ์ 0 กลับเพื่อบ่งบอกว่าโปรแกรมทำงานเสร็จสมบูรณ์โดยไม่มีข้อผิดพลาด" style="whiteSpace=wrap;html=1;strokeWidth=2;" vertex="1" parent="1">
          <mxGeometry x="304" y="430" width="120" height="60" as="geometry" />
        </mxCell>
        <mxCell id="pAvVOW_PQTt-eWisGmQ0-11" value="End" style="strokeWidth=2;html=1;shape=mxgraph.flowchart.start_1;whiteSpace=wrap;" vertex="1" parent="1">
          <mxGeometry x="314" y="525" width="100" height="60" as="geometry" />
        </mxCell>
      </root>
    </mxGraphModel>
  </diagram>
</mxfile>
